# File created by Blade
# Date/Time:  Tue Jan 27 17:27:44 2015
#---------------------------------------------------------
:version 1.10
:name HOM
:units
  mass 1.0
  length 1.000000
  angle deg
:documentation
     Acclaim Skeleton File
:root
   axis xyz
   order TX TY TZ RX RY RZ
   position 0.000000 0.000000 0.000000
   orientation 0 0 0
:bonedata
   begin
      id 1
      name Spine_dum
      direction 0.000000 1.000000 0.000000
      length 7.539951
      axis 0.0 0.0 0.0 xyz
   end
   begin
      id 2
      name LeftUpLeg_dum
      direction 1.000000 0.000000 0.000000
      length 3.345476
      axis 0.0 0.0 0.0 xyz
   end
   begin
      id 3
      name RightUpLeg_dum
      direction -1.000000 0.000000 0.000000
      length 3.345476
      axis 0.0 0.0 0.0 xyz
   end
   begin
      id 4
      name Spine
      direction 0.000000 1.000000 0.000000
      length 0.000000
      axis 0.0 0.0 0.0 xyz
      dof rx ry rz
   end
   begin
      id 5
      name Spine_dum1
      direction 0.000000 1.000000 0.000000
      length 15.093809
      axis 0.0 0.0 0.0 xyz
   end
   begin
      id 6
      name Spine_dum2
      direction 0.000000 1.000000 0.000000
      length 9.738928
      axis 0.0 0.0 0.0 xyz
   end
   begin
      id 7
      name Spine_dum3
      direction 0.000000 1.000000 0.000000
      length 9.738928
      axis 0.0 0.0 0.0 xyz
   end
   begin
      id 8
      name Head
      direction 0.000000 1.000000 0.000000
      length 4.527550
      axis 0.0 0.0 0.0 xyz
      dof rx ry rz
   end
   begin
      id 9
      name LeftShoulder
      direction 1.000000 0.000000 0.000000
      length 7.084015
      axis 0.0 0.0 -90.0 xyz
      dof rx ry rz
   end
   begin
      id 10
      name LeftArm
      direction 1.000000 0.000000 0.000000
      length 10.259319
      axis 0.0 0.0 -90.0 xyz
      dof rx ry rz
   end
   begin
      id 11
      name LeftForeArm
      direction 1.000000 0.000000 0.000000
      length 9.896984
      axis 0.0 0.0 -90.0 xyz
      dof ry rz rx
   end
   begin
      id 12
      name LeftHand
      direction 0.000000 0.000000 0.000000
      length 0.000000
      axis 0.0 0.0 -90.0 xyz
      dof rx ry rz
   end
   begin
      id 13
      name LeftHand_dum1
      direction 0.000000 0.000000 0.000000
      length 0.000000
      axis 0.0 0.0 -90.0 xyz
   end
   begin
      id 14
      name LeftHand_dum2
      direction 1.000000 0.000000 0.000000
      length 3.937000
      axis 0.0 0.0 -90.0 xyz
   end
   begin
      id 15
      name LeftHandThumb1
      direction 0.000000 0.000000 1.000000
      length 3.937000
      axis 0.0 0.0 -90.0 xyz
      dof rx rz ry
   end
   begin
      id 16
      name RightShoulder
      direction -1.000000 0.000000 0.000000
      length 7.084015
      axis 0.0 0.0 90.0 xyz
      dof rx ry rz
   end
   begin
      id 17
      name RightArm
      direction -1.000000 0.000000 0.000000
      length 10.259319
      axis 0.0 0.0 90.0 xyz
      dof rx ry rz
   end
   begin
      id 18
      name RightForeArm
      direction -1.000000 0.000000 0.000000
      length 9.896984
      axis 0.0 0.0 90.0 xyz
      dof ry rz rx
   end
   begin
      id 19
      name RightHand
      direction 0.000000 0.000000 0.000000
      length 0.000000
      axis 0.0 0.0 90.0 xyz
      dof rx ry rz
   end
   begin
      id 20
      name RightHand_dum1
      direction 0.000000 0.000000 0.000000
      length 0.000000
      axis 0.0 0.0 90.0 xyz
   end
   begin
      id 21
      name RightHand_dum2
      direction -1.000000 0.000000 0.000000
      length 3.937000
      axis 0.0 0.0 90.0 xyz
   end
   begin
      id 22
      name RightHandThumb1
      direction 0.000000 0.000000 1.000000
      length 3.937000
      axis 0.0 0.0 90.0 xyz
      dof rx rz ry
   end
   begin
      id 23
      name LeftUpLeg
      direction 0.000000 -1.000000 0.000000
      length 19.114733
      axis 0.0 0.0 0.0 xyz
      dof rx ry rz
   end
   begin
      id 24
      name LeftLeg
      direction 0.000000 -1.000000 0.000000
      length 16.045604
      axis 0.0 0.0 0.0 xyz
      dof rx ry rz
   end
   begin
      id 25
      name LeftFoot
      direction 0.000000 -0.258819 0.965926
      length 5.543155
      axis 15.0 0.0 0.0 xyz
      dof rx ry rz
   end
   begin
      id 26
      name LeftToeBase
      direction 0.000000 0.000000 1.000000
      length 2.952750
      axis 0.0 0.0 0.0 xyz
      dof rx ry rz
   end
   begin
      id 27
      name RightUpLeg
      direction 0.000000 -1.000000 0.000000
      length 19.114733
      axis 0.0 0.0 0.0 xyz
      dof rx ry rz
   end
   begin
      id 28
      name RightLeg
      direction 0.000000 -1.000000 0.000000
      length 16.045604
      axis 0.0 0.0 0.0 xyz
      dof rx ry rz
   end
   begin
      id 29
      name RightFoot
      direction 0.000000 -0.258819 0.965926
      length 5.543155
      axis 15.0 0.0 0.0 xyz
      dof rx ry rz
   end
   begin
      id 30
      name RightToeBase
      direction 0.000000 0.000000 1.000000
      length 2.952750
      axis 0.0 0.0 0.0 xyz
      dof rx ry rz
   end
:hierarchy
   begin
      root Spine_dum LeftUpLeg_dum RightUpLeg_dum
      Spine_dum Spine
      LeftUpLeg_dum LeftUpLeg
      RightUpLeg_dum RightUpLeg
      Spine Spine_dum1 Spine_dum2 Spine_dum3
      Spine_dum1 Head
      Spine_dum2 LeftShoulder
      Spine_dum3 RightShoulder
      LeftShoulder LeftArm
      LeftArm LeftForeArm
      LeftForeArm LeftHand
      LeftHand LeftHand_dum1 LeftHand_dum2
      LeftHand_dum1 LeftHandThumb1
      RightShoulder RightArm
      RightArm RightForeArm
      RightForeArm RightHand
      RightHand RightHand_dum1 RightHand_dum2
      RightHand_dum1 RightHandThumb1
      LeftUpLeg LeftLeg
      LeftLeg LeftFoot
      LeftFoot LeftToeBase
      RightUpLeg RightLeg
      RightLeg RightFoot
      RightFoot RightToeBase
   end

# File created by Blade
# Date/Time:  Tue Jan 27 17:27:32 2015
# Frame Rate: 120.000 fps
#------------------------------------------------------
:FULLY-SPECIFIED
:DEGREES
48
root 1.334614 36.942528 1.768396 6.865604 1.046300 0.459575
Spine -4.825590 7.623691 -2.070804
Head 3.982184 -1.255639 1.716059
LeftShoulder -8.387122 -10.657209 16.417236
LeftArm -1.173252 -15.106765 -21.549892
LeftForeArm 34.421751 -0.000000 16.448967
LeftHand -22.403102 -0.000000 0.724198
LeftHandThumb1 -26.253704 0.000000 33.147579
RightShoulder -9.667311 -7.307480 -14.708819
RightArm 1.100090 34.397648 35.078139
RightForeArm 180.430414 -0.000000 18.241587
RightHand 5.695495 0.000000 2.034638
RightHandThumb1 -24.326973 -0.000000 -32.862282
LeftUpLeg -4.547283 5.075708 -0.284844
LeftLeg 6.594563 -0.000000 -0.000000
LeftFoot -16.940924 2.613249 -17.424507
LeftToeBase 14.738289 -0.000000 -0.000000
RightUpLeg -5.803368 -8.657534 -3.698816
RightLeg 10.920705 -0.000000 -0.000000
RightFoot -14.902758 -2.265958 7.629582
RightToeBase 3.598728 -0.000000 -0.000000
49
root 1.349426 36.941063 1.761480 6.835107 1.039526 0.491191
Spine -4.768387 7.620853 -2.138135
Head 4.009030 -1.272680 1.761506
LeftShoulder -8.377697 -10.706056 16.292672
LeftArm -1.410532 -15.347949 -21.462305
LeftForeArm 34.149286 -0.000000 17.047344
LeftHand -22.034335 -0.000000 1.345516
LeftHandThumb1 -26.253704 0.000000 33.147579
RightShoulder -9.640791 -7.456000 -14.602515
RightArm 1.119893 34.387742 35.603585
RightForeArm 181.249171 -0.000000 18.537892
RightHand 5.568640 -0.000000 2.627718
RightHandThumb1 -24.326973 -0.000000 -32.862282
LeftUpLeg -4.543611 5.055779 -0.339184
LeftLeg 6.631811 -0.000000 -0.000000
LeftFoot -16.951429 2.639120 -17.398876
LeftToeBase 14.697684 -0.000000 -0.000000
RightUpLeg -5.795724 -8.676104 -3.760772
RightLeg 10.948016 -0.000000 -0.000000
RightFoot -14.923078 -2.228888 7.626709
RightToeBase 3.620863 -0.000000 -0.000000
50
root 1.365654 36.939467 1.754229 6.810826 1.030436 0.523581
Spine -4.712677 7.645849 -2.203123
Head 4.076355 -1.336682 1.814411
LeftShoulder -8.362362 -10.707517 16.175373
LeftArm -1.643121 -15.658880 -21.465526
LeftForeArm 33.638089 0.000000 17.768351
LeftHand -21.986416 -0.000000 1.895268
LeftHandThumb1 -26.253704 0.000000 33.147579
RightShoulder -9.631211 -7.627705 -14.471930
RightArm 1.112414 34.382127 36.126855
RightForeArm 182.033269 0.000000 18.876218
RightHand 5.390572 0.000000 3.269461
RightHandThumb1 -24.326973 -0.000000 -32.862282
LeftUpLeg -4.553773 5.048030 -0.399080
LeftLeg 6.680392 -0.000000 -0.000000
LeftFoot -16.971385 2.653599 -17.373294
LeftToeBase 14.690232 -0.000000 -0.000000
RightUpLeg -5.793924 -8.669800 -3.828185
RightLeg 10.976639 -0.000000 -0.000000
RightFoot -14.935860 -2.201373 7.659031
RightToeBase 3.621346 -0.000000 -0.000000
51
root 1.381121 36.938709 1.745139 6.799550 1.037774 0.536669
Spine -4.664324 7.667781 -2.247210
Head 4.095396 -1.454367 1.826848
LeftShoulder -8.371271 -10.700994 16.053713
LeftArm -1.837450 -16.025224 -21.501064
LeftForeArm 33.147009 -0.000000 18.494335
LeftHand -22.173464 -0.000000 2.553903
LeftHandThumb1 -26.253704 0.000000 33.147579
RightShoulder -9.602590 -7.768686 -14.330278
RightArm 1.036890 34.361814 36.625719
RightForeArm 182.811753 -0.000000 19.262544
RightHand 5.224984 -0.000000 3.752482
RightHandThumb1 -24.326973 -0.000000 -32.862282
LeftUpLeg -4.585649 5.030175 -0.437212
LeftLeg 6.741963 -0.000000 -0.000000
LeftFoot -16.993145 2.665222 -17.354135
LeftToeBase 14.678471 -0.000000 -0.000000
RightUpLeg -5.796102 -8.649384 -3.872637
RightLeg 10.981487 -0.000000 -0.000000
RightFoot -14.926468 -2.183791 7.725772
RightToeBase 3.598861 -0.000000 -0.000000
52
root 1.397730 36.936738 1.736523 6.793418 1.048263 0.559552
Spine -4.622116 7.697426 -2.308201
Head 4.111648 -1.556242 1.802452
LeftShoulder -8.365544 -10.759844 15.969206
LeftArm -2.077324 -16.357974 -21.568999
LeftForeArm 32.449836 -0.000000 19.194908
LeftHand -21.607585 -0.000000 3.476247
LeftHandThumb1 -26.253704 0.000000 33.147579
RightShoulder -9.597983 -7.943902 -14.160789
RightArm 1.006378 34.279873 37.149892
RightForeArm 183.578217 0.000000 19.658630
RightHand 5.130794 -0.000000 4.241338
RightHandThumb1 -24.326973 -0.000000 -32.862282
LeftUpLeg -4.622448 4.979754 -0.487200
LeftLeg 6.803096 -0.000000 -0.000000
LeftFoot -17.038751 2.694383 -17.336374
LeftToeBase 14.715642 -0.000000 -0.000000
RightUpLeg -5.814018 -8.654978 -3.925492
RightLeg 11.014328 -0.000000 -0.000000
RightFoot -14.953977 -2.159636 7.745247
RightToeBase 3.661902 -0.000000 -0.000000
53
root 1.414810 36.934931 1.727680 6.784686 1.072397 0.582703
Spine -4.570496 7.718951 -2.377510
Head 4.088336 -1.701704 1.795407
LeftShoulder -8.361064 -10.852781 15.877895
LeftArm -2.338927 -16.636306 -21.633947
LeftForeArm 31.649629 -0.000000 19.945054
LeftHand -21.272662 -0.000000 4.202967
LeftHandThumb1 -26.253704 0.000000 33.147579
RightShoulder -9.611480 -8.101593 -13.934889
RightArm 0.985769 34.170330 37.639880
RightForeArm 184.205200 -0.000000 20.056885
RightHand 5.061783 -0.000000 4.676168
RightHandThumb1 -24.326973 -0.000000 -32.862282
LeftUpLeg -4.669569 4.939452 -0.536518
LeftLeg 6.886610 -0.000000 -0.000000
LeftFoot -17.061282 2.701904 -17.308212
LeftToeBase 14.657308 -0.000000 -0.000000
RightUpLeg -5.828906 -8.660751 -3.979024
RightLeg 11.050042 -0.000000 -0.000000
RightFoot -14.965712 -2.143971 7.768479
RightToeBase 3.612624 -0.000000 -0.000000
54
root 1.433912 36.933174 1.717878 6.777292 1.078620 0.612845
Spine -4.518494 7.756767 -2.451449
Head 4.075893 -1.791582 1.839045
LeftShoulder -8.364195 -10.912302 15.798034
LeftArm -2.625409 -16.979929 -21.753231
LeftForeArm 30.780685 -0.000000 20.775219
LeftHand -20.871802 -0.000000 4.935529
LeftHandThumb1 -26.253704 0.000000 33.147579
RightShoulder -9.646873 -8.355558 -13.684993
RightArm 1.071492 34.035111 38.190753
RightForeArm 184.895973 -0.000000 20.442430
RightHand 4.895584 -0.000000 5.072445
RightHandThumb1 -24.326973 -0.000000 -32.862282
LeftUpLeg -4.701173 4.940309 -0.599453
LeftLeg 6.935196 -0.000000 -0.000000
LeftFoot -17.076695 2.687234 -17.277684
LeftToeBase 14.671994 -0.000000 -0.000000
RightUpLeg -5.851476 -8.656569 -4.044227
RightLeg 11.089958 -0.000000 -0.000000
RightFoot -14.991424 -2.123915 7.807994
RightToeBase 3.647709 -0.000000 -0.000000
55
root 1.453421 36.931671 1.706835 6.782466 1.077105 0.636198
Spine -4.487944 7.809613 -2.518309
Head 4.155539 -1.858748 1.817666
LeftShoulder -8.350943 -10.926091 15.697874
LeftArm -2.904648 -17.357523 -21.888023
LeftForeArm 29.812112 0.000000 21.623105
LeftHand -20.476373 -0.000000 5.647623
LeftHandThumb1 -26.253704 0.000000 33.147579
RightShoulder -9.653932 -8.604668 -13.418502
RightArm 1.097735 33.814422 38.716076
RightForeArm 185.447351 0.000000 20.877278
RightHand 4.779320 -0.000000 5.459163
RightHandThumb1 -24.326973 -0.000000 -32.862282
LeftUpLeg -4.745489 4.969009 -0.659445
LeftLeg 6.974320 -0.000000 -0.000000
LeftFoot -17.073044 2.659755 -17.208764
LeftToeBase 14.671200 -0.000000 -0.000000
RightUpLeg -5.890224 -8.618915 -4.100249
RightLeg 11.128829 -0.000000 -0.000000
RightFoot -15.009612 -2.133747 7.859010
RightToeBase 3.655090 -0.000000 -0.000000
56
root 1.474487 36.930138 1.695430 6.783753 1.100253 0.652827
Spine -4.444753 7.852294 -2.571246
Head 4.197169 -1.920146 1.821671
LeftShoulder -8.361027 -10.870040 15.598077
LeftArm -3.100169 -17.906296 -22.099644
LeftForeArm 28.843626 -0.000000 22.450559
LeftHand -19.967349 -0.000000 6.350007
LeftHandThumb1 -26.253704 0.000000 33.147579
RightShoulder -9.710258 -8.853600 -13.141265
RightArm 1.207440 33.481338 39.281104
RightForeArm 186.148120 -0.000000 21.263902
RightHand 4.721203 -0.000000 5.928889
RightHandThumb1 -24.326973 -0.000000 -32.862282
LeftUpLeg -4.797600 4.916875 -0.709492
LeftLeg 7.048433 -0.000000 -0.000000
LeftFoot -17.101566 2.728435 -17.209702
LeftToeBase 14.630889 -0.000000 -0.000000
RightUpLeg -5.923488 -8.628583 -4.150118
RightLeg 11.172639 -0.000000 -0.000000
RightFoot -15.017673 -2.121529 7.876479
RightToeBase 3.680234 -0.000000 -0.000000
57
root 1.495524 36.927833 1.685613 6.784645 1.124702 0.673651
Spine -4.401898 7.881628 -2.640189
Head 4.198575 -2.051731 1.762419
LeftShoulder -8.320727 -10.920190 15.510953
LeftArm -3.494844 -18.237619 -22.250541
LeftForeArm 27.620798 -0.000000 23.412647
LeftHand -19.418804 -0.000000 7.106574
LeftHandThumb1 -26.253704 0.000000 33.147579
RightShoulder -9.768300 -9.102504 -12.831988
RightArm 1.342770 33.022309 39.846269
RightForeArm 186.746243 -0.000000 21.633196
RightHand 4.490747 -0.000000 6.478119
RightHandThumb1 -24.326973 -0.000000 -32.862282
LeftUpLeg -4.841408 4.859283 -0.765291
LeftLeg 7.106699 -0.000000 -0.000000
LeftFoot -17.144100 2.779482 -17.166029
LeftToeBase 14.637440 -0.000000 -0.000000
RightUpLeg -5.953216 -8.638296 -4.203270
RightLeg 11.216984 -0.000000 -0.000000
RightFoot -15.043772 -2.118643 7.907139
RightToeBase 3.685450 -0.000000 -0.000000
58
root 1.516971 36.925702 1.673794 6.778373 1.148268 0.696322
Spine -4.345063 7.894736 -2.709315
Head 4.223557 -2.088514 1.771381
LeftShoulder -8.321988 -10.840595 15.392951
LeftArm -3.802270 -18.722849 -22.424000
LeftForeArm 26.203797 -0.000000 24.447585
LeftHand -18.954422 -0.000000 7.759822
LeftHandThumb1 -26.253704 0.000000 33.147579
RightShoulder -9.827315 -9.339526 -12.558014
RightArm 1.512105 32.380631 40.478893
RightForeArm 187.410568 -0.000000 21.984975
RightHand 4.320883 0.000000 6.966965
RightHandThumb1 -24.326973 -0.000000 -32.862282
LeftUpLeg -4.884751 4.830972 -0.823171
LeftLeg 7.173369 -0.000000 -0.000000
LeftFoot -17.181567 2.795008 -17.131236
LeftToeBase 14.672454 -0.000000 -0.000000
RightUpLeg -5.980437 -8.651830 -4.257672
RightLeg 11.262978 -0.000000 -0.000000
RightFoot -15.055560 -2.118311 7.946203
RightToeBase 3.674160 -0.000000 -0.000000
59
root 1.540526 36.925262 1.661385 6.791767 1.179110 0.711997
Spine -4.295754 7.946374 -2.764784
Head 4.201425 -2.143807 1.814881
LeftShoulder -8.330722 -10.776767 15.246804
LeftArm -4.013960 -19.318443 -22.641345
LeftForeArm 24.987090 -0.000000 25.424808
LeftHand -18.513731 0.000000 8.269481
LeftHandThumb1 -26.253704 0.000000 33.147579
RightShoulder -9.941407 -9.624329 -12.235838
RightArm 1.721853 31.592086 41.070332
RightForeArm 187.815620 -0.000000 22.336322
RightHand 4.181855 -0.000000 7.551069
RightHandThumb1 -24.326973 -0.000000 -32.862282
LeftUpLeg -4.941994 4.786492 -0.879216
LeftLeg 7.219333 -0.000000 -0.000000
LeftFoot -17.187928 2.830724 -17.080492
LeftToeBase 14.636949 -0.000000 -0.000000
RightUpLeg -6.025538 -8.646667 -4.306087
RightLeg 11.304994 -0.000000 -0.000000
RightFoot -15.050769 -2.139248 7.988697
RightToeBase 3.687192 -0.000000 -0.000000
